Coordinates
version=1
nRows=14
nColumns=36
inDegrees=yes

Units are S.I. units (second, meters, Newtons, ...)
If the header above contains a line with 'inDegrees', this indicates whether rotational values are in degrees (yes) or radians (no).

endheader
time	pelvis_tilt	pelvis_list	pelvis_rotation	pelvis_tx	pelvis_ty	pelvis_tz	hip_flexion_r	hip_adduction_r	hip_rotation_r	knee_angle_r	knee_angle_r_beta	ankle_angle_r	subtalar_angle_r	mtp_angle_r	hip_flexion_l	hip_adduction_l	hip_rotation_l	knee_angle_l	knee_angle_l_beta	ankle_angle_l	subtalar_angle_l	mtp_angle_l	lumbar_extension	lumbar_bending	lumbar_rotation	arm_flex_r	arm_add_r	arm_rot_r	elbow_flex_r	pro_sup_r	arm_flex_l	arm_add_l	arm_rot_l	elbow_flex_l	pro_sup_l
      2.98333330	    -30.02805401	     -5.54446173	      9.33245444	      0.87935370	      0.58763707	      0.12644570	    100.50439491	    -23.84634037	     -5.17344476	     95.02821508	      1.65855524	     26.42950341	     -9.43295018	     -7.49999987	    101.21367335	    -13.84909272	      2.08117653	     94.38390080	      1.64730983	     26.45494533	    -15.05318459	     -7.49999987	    -29.52190556	      5.81558445	      9.52758844	     94.13901328	    -13.72018403	     82.75344697	    129.79764711	     85.74693281	     98.16187663	      9.59930868	     66.45457977	    108.35795555	    104.84855620
      3.00000000	    -29.58872643	     -5.55900293	      9.29118578	      0.88064781	      0.59193113	      0.13285173	     99.35927909	    -23.60824624	     -5.49427124	     94.18256143	      1.64379579	     26.18799759	     -9.38829172	     -7.49999987	    100.24350360	    -13.81132025	      2.10231617	     93.62395258	      1.63404623	     26.36831552	    -15.22562856	     -7.49999987	    -28.89203481	      5.86027491	      9.19723530	     96.07396838	    -11.28918312	     81.21332315	    132.15370568	     86.51863151	     99.70764990	      9.27898815	     65.23916838	    110.38995957	    104.68850979
      3.01666670	    -29.28039647	     -5.55132170	      9.22870551	      0.88074778	      0.60251651	      0.13352707	     98.16632404	    -23.32687743	     -5.83375404	     93.15804860	      1.62591467	     25.94593853	     -9.33744201	     -7.49999987	     99.23936355	    -13.82935132	      2.07854689	     92.71258682	      1.61813990	     26.16288795	    -15.40937623	     -7.49999987	    -28.46537811	      5.87506711	      8.94743041	     97.07773171	    -10.54319308	     81.19630068	    130.80841051	     84.83860318	    100.39620077	      7.99258548	     65.73987713	    109.84684797	     99.57204883
      3.03333330	    -29.16672537	     -5.60529606	      9.00637766	      0.88126284	      0.61794063	      0.13327375	     96.75126571	    -22.82783001	     -6.35162094	     91.65227942	      1.59963404	     25.59334082	     -9.32678904	     -7.49999987	     98.10437025	    -14.03413235	      2.03167555	     91.44386617	      1.59599655	     25.97645181	    -15.31392227	     -7.49999987	    -28.02057316	      5.89439883	      9.48128850	     97.42570628	    -10.15972017	     81.60713043	    131.71680534	     96.31561281	     99.58221266	      8.89051856	     66.43458995	    110.61791162	    105.47135018
      3.05000000	    -28.96744318	     -5.69629575	      8.82056808	      0.88912070	      0.63206329	      0.13492785	     94.85498907	    -22.29702384	     -6.97296689	     89.78690533	      1.56707712	     25.29947257	     -9.28704083	     -7.49999987	     96.52109987	    -14.20224403	      1.99243534	     89.82917537	      1.56781487	     25.80993190	    -15.30176414	     -7.49999987	    -27.51676530	      5.88499569	      9.28210492	     97.39233777	     -9.64425301	     80.32710903	    132.07063315	     95.20250027	    100.12815696	      8.72759756	     66.47733215	    111.16016671	    103.78105468
      3.06666670	    -28.65256133	     -5.68248576	      8.67218666	      0.88919018	      0.63929922	      0.13469775	     92.88867757	    -21.81944027	     -7.49778386	     87.92521402	      1.53458448	     25.04187642	     -9.23090416	     -7.49999987	     94.70040199	    -14.38050038	      1.81269589	     88.16773883	      1.53881734	     25.62636615	    -15.28590670	     -7.49999987	    -26.81157635	      5.77160513	      9.24560305	     97.20188207	     -9.16482055	     79.67548843	    131.89043894	     93.85845822	     99.77932878	      9.08445460	     66.74991336	    111.35456780	    102.06090660
      3.08333330	    -28.04307362	     -5.75163945	      8.45389216	      0.89718301	      0.65135532	      0.13709882	     90.36055790	    -21.11115362	     -8.16615079	     85.89378376	      1.49912933	     24.87415550	     -9.27301883	     -7.49999987	     92.47333857	    -14.71303878	      1.77213636	     86.42272041	      1.50836102	     25.53562892	    -15.22420838	     -7.49999987	    -26.05981372	      5.77024412	      9.06760887	     96.90507442	     -8.30747645	     78.25770018	    132.51261786	     94.22051376	    100.11263064	      9.03883706	     66.88382131	    113.04487470	    102.27550977
      3.10000000	    -27.25976752	     -5.78245784	      8.32137251	      0.90502682	      0.67011718	      0.13871368	     87.26156867	    -20.36191816	     -8.86027696	     83.47196106	      1.45686055	     24.73920145	     -9.30775727	     -7.49999987	     89.62494484	    -14.93583702	      1.68876583	     84.22872927	      1.47006865	     25.43639980	    -15.02557789	     -7.49999987	    -25.60199806	      5.96951420	      8.58471199	     95.48074853	     -6.60863006	     76.89316179	    131.82998458	    100.66845417	     98.20566154	      7.93862749	     67.16489818	    114.76991711	    106.07220558
      3.11666670	    -26.65444113	     -5.67726514	      8.18690504	      0.91790409	      0.68958004	      0.13813114	     83.83292200	    -19.55194742	     -9.51970876	     80.47420639	      1.40453986	     24.60376131	     -9.33535914	     -7.49999987	     86.27893003	    -15.18800700	      1.22240461	     81.41453244	      1.42095165	     25.22917525	    -14.73657658	     -7.49999987	    -24.98435622	      5.85648384	      8.12426071	     93.69717919	     -6.80968671	     77.55467578	    131.71887921	     98.03108540	     96.82681312	      7.41431982	     68.04544058	    115.23254431	    102.65958875
      3.13333330	    -25.59086178	     -5.66784349	      8.05462996	      0.91821832	      0.70076993	      0.13770283	     80.02075254	    -18.66595414	    -10.22642637	     77.50041114	      1.35263735	     24.38018902	     -9.42274399	     -7.49999987	     82.56884074	    -15.54344454	      0.84680665	     78.61765715	      1.37213697	     25.10578861	    -14.17504775	     -7.49999987	    -25.84562956	      5.72514311	      8.24570713	     94.68331632	    -12.44037074	     52.77241917	    125.83659118	     98.06490276	     99.83996444	      8.37750216	     65.20961390	    116.06780139	    104.26959303
      3.15000000	    -24.57625431	     -5.61198703	      7.93256117	      0.92836154	      0.71264991	      0.14605424	     76.21272214	    -17.58628924	    -10.76473111	     74.43768127	      1.29918263	     24.26998993	     -9.35159696	     -7.49999987	     78.75793771	    -15.98005326	      0.34354128	     75.59601777	      1.31939941	     24.84260484	    -13.67542833	     -7.49999987	    -24.46384240	      5.26400672	      7.55195099	     91.93517526	     -9.18976327	     55.43079577	    130.47978742	     98.09905519	     96.65339210	      7.02858399	     65.20800640	    116.79409332	    104.18017394
      3.16666670	    -23.05444770	     -5.44962764	      7.86273620	      0.94419509	      0.72889742	      0.14942865	     71.68998720	    -16.49586199	    -11.27431869	     71.21531084	      1.24294165	     24.30689148	     -9.28479036	     -7.49999987	     74.04713943	    -16.45858745	     -0.27691548	     72.20686866	      1.26024760	     24.87430279	    -12.47892968	     -7.49999987	    -23.96535234	      5.40923542	      7.52655532	     89.73160349	     -7.93228720	     55.72517170	    127.70212719	     98.64284915	     93.46773830	      6.04805970	     64.53972035	    119.57857295	    103.96575760
      3.18333330	    -21.67121338	     -5.08460839	      7.70006956	      0.94952258	      0.73994448	      0.14659649	     67.67326000	    -15.50509477	    -11.35031403	     68.38306728	      1.19350968	     24.30934041	     -9.04064791	     -7.49999987	     69.46312760	    -16.92278966	     -1.22699384	     68.93324918	      1.20311216	     24.68742574	    -11.27241837	     -7.49999987	    -22.66927683	      5.06326194	      6.90215760	     88.62023405	     -5.06369919	     59.32652742	    127.85194499	     99.29601104	     91.38995545	      5.49701257	     63.76647862	    119.48510719	    103.59638837
      3.20000000	    -20.94139300	     -4.69465663	      7.47720189	      0.94459772	      0.75611193	      0.15209420	     64.61811659	    -14.67584603	    -11.35642632	     65.65259110	      1.14585388	     23.89603298	     -8.93077959	     -7.49999987	     65.80897329	    -17.31265600	     -2.36548222	     65.67931201	      1.14632024	     24.30149113	     -9.99333174	     -7.49999987	    -21.62438533	      4.55314685	      6.34058204	     87.77376423	     -5.76499298	     59.14044973	    124.66162669	     99.41421594	     91.60938726	      4.82580824	     64.02814617	    118.58474626	    103.15173463
